<?xml version="1.0" encoding="UTF-8"?> <svg xmlns="http://www.w3.org/2000/svg" viewBox="0 0 266.46 41.9"> <defs> <style>.cls-1{fill:#fff;}</style> </defs> <g id="Слой_2" data-name="Слой 2"> <g id="all"> <polygon class="cls-1" points="0 40.74 22.21 40.74 22.21 31.59 10.74 31.59 10.74 2.52 0 2.52 0 40.74 0 40.74"></polygon> <path class="cls-1" d="M24.3,14.44v26.3h9.51V14.44Zm-.22-7.73a5,5,0,1,0,5-5,5,5,0,0,0-5,5Z"></path> <path class="cls-1" d="M46.15,17.44v-3h-9.6v26.3h9.6v-13c0-4.18,2.25-6.54,5-6.54,3.48,0,3.39,3.74,3.39,5V40.74h9.59V25.31c0-3.54-.43-11.9-9.44-11.9a10.45,10.45,0,0,0-8.58,4Z"></path> <path class="cls-1" d="M66.49,14.44v26.3h9.59V14.44Zm-.22-7.73a5,5,0,0,0,5,5,5,5,0,1,0,0-10,5,5,0,0,0-5,5Z"></path> <path class="cls-1" d="M98.89,17.6a10.13,10.13,0,0,0-8.69-4.19C82.2,13.41,78,20,78,27.55c0,8.08,4.83,14.2,12.24,14.2a10.62,10.62,0,0,0,8.69-4.09v3.08h9.23V14.44H98.89V17.6ZM93.53,33.91c-4.19,0-5.7-3.64-5.7-6.36s1.45-6.34,5.7-6.34c3.75,0,5.78,2.88,5.78,6.34s-2,6.36-5.78,6.36Z"></path> <path class="cls-1" d="M129.53,18.61V27h9.86a8.33,8.33,0,0,1-8.52,6.48c-4.83,0-10.21-3.53-10.21-11.86,0-6.76,4.15-11,9.87-11a9,9,0,0,1,8,4.54L148,10.74c-4.68-8.81-14.23-9.29-17.76-9.29C116.81,1.45,110,10.58,110,21.84c0,11.85,8.11,20.06,21,20.06,18,0,19.62-15.72,19-23.29Z"></path> <path class="cls-1" d="M161.12,17.88V14.44h-9.23v26.3h9.57V29.5c0-4.75,2.82-7.6,7.13-7.6a6.13,6.13,0,0,1,2.46.48V14c-.59,0-1.78-.22-2.46-.22a9,9,0,0,0-7.47,4.09Z"></path> <path class="cls-1" d="M191.18,17.6a10.15,10.15,0,0,0-8.65-4.19c-8.1,0-12.34,6.56-12.34,14.14,0,8.08,4.83,14.2,12.34,14.2a10.79,10.79,0,0,0,8.65-4.09v3.08h9.17V14.44h-9.17V17.6Zm-5.43,16.31c-4.17,0-5.68-3.64-5.68-6.36s1.44-6.34,5.68-6.34c3.76,0,5.79,2.88,5.79,6.34s-2,6.36-5.79,6.36Z"></path> <path class="cls-1" d="M205.11,40.74h9.57V21.21h5.72V14.44h-5.72V11c0-.93,0-4,3-4a7.27,7.27,0,0,1,2.68.72v-7A39.47,39.47,0,0,0,215.27,0c-5,0-10.16,1.78-10.16,9.23v5.21h-3.48v6.77h3.48V40.74Z"></path> <path class="cls-1" d="M221.6,14.44v26.3h9.55V14.44Zm-.21-7.73a5,5,0,0,0,5,5,5,5,0,1,0-5-5Z"></path> <path class="cls-1" d="M266.25,29.14V2.75h-9.52V29.14Zm.21,7.62a5,5,0,0,0-5-4.95,4.92,4.92,0,0,0-5,4.95,5,5,0,1,0,9.94,0Z"></path> <path class="cls-1" d="M254.86,31.37C252.28,33.6,250.24,34,249,34c-3.48,0-6-2.25-6-6.43s2.26-6.5,5.64-6.5a9.3,9.3,0,0,1,6.28,2.68V15.51a18.86,18.86,0,0,0-8.37-2.1c-8.21,0-13.48,5.85-13.48,14.14,0,8,5,14.2,13.48,14.2a19.84,19.84,0,0,0,8.37-2V31.37Z"></path> </g> </g> </svg> 